<svg width="427" height="427" viewBox="0 0 427 427" fill="none" xmlns="http://www.w3.org/2000/svg">
<rect width="427" height="427" fill="url(#paint0_linear_344_496)"/>
<g clip-path="url(#clip0_344_496)">
<path d="M367.203 177.033H336.165L366.163 155.468L358.441 144.535L313.296 177.183H281.367L295.623 155.019L267.11 146.332L286.268 129.559H334.235V116.081H301.712L328.74 92.5683L319.978 82.3846L290.426 108.143V71.9014H277.06V119.825L257.012 137.347L249.587 110.839L220.034 129.409V97.9597L254.339 63.365L244.835 53.7804L220.034 78.7904V41.5H206.669V77.7421L182.908 53.7804L173.404 63.365L206.669 96.9114V128.81L178.156 110.839L170.73 137.347L150.534 119.675V71.7516H137.168V107.994L107.616 82.3846L98.8539 92.5683L125.882 116.081H93.3592V129.559H141.326L160.632 146.332L132.119 154.869L146.376 177.033H114.447L68.2618 143.786L60.5395 154.719L91.5771 177.033H59.5V190.512H367.203V177.033ZM162.266 177.033L153.058 162.656L172.661 156.816L195.976 177.183H162.266V177.033ZM206.669 168.647L182.017 147.081L186.324 131.656L206.817 144.535V168.647H206.669ZM220.034 145.134L241.568 131.656L245.874 147.081L220.034 169.545V145.134ZM265.477 177.033H231.766L255.081 156.666L274.684 162.507L265.477 177.033Z" fill="#1FA0E1"/>
<path d="M100.933 262.097L66.1827 292.499L74.9446 302.682L115.189 267.638L150.534 296.992L107.467 334.581L116.229 344.765L210.975 262.247H218.252L312.999 344.765L321.76 334.581L283.446 301.185L318.939 270.334L356.214 302.832L364.975 292.648L329.78 262.097H100.933ZM307.355 262.097L272.902 292.049L238.449 262.097H307.355ZM190.482 262.097L160.781 288.006L129.595 262.097H190.482Z" fill="white"/>
<path d="M100.933 262.097L66.1827 292.499L74.9446 302.682L115.189 267.638L150.534 296.992L107.467 334.581L116.229 344.765L210.975 262.247H218.252L312.999 344.765L321.76 334.581L283.446 301.185L318.939 270.334L356.214 302.832L364.975 292.648L329.78 262.097H100.933ZM307.355 262.097L272.902 292.049L238.449 262.097H307.355ZM190.482 262.097L160.781 288.006L129.595 262.097H190.482Z" fill="white"/>
<path d="M59.5 262.097H367.203V248.619H59.5V262.097Z" fill="#1FA0E1"/>
<path d="M59.5 262.097H367.203V248.619H59.5V262.097Z" fill="#1FA0E1"/>
<path d="M265.774 329.04C266.516 329.04 267.407 329.04 268.15 329.04L267.853 315.562C252.26 315.861 240.528 312.417 232.954 304.929C225.083 297.291 221.222 284.861 221.074 268.238H214.391H207.708C207.708 285.011 203.699 297.291 195.828 304.929C188.254 312.267 176.522 315.861 160.929 315.562L160.632 329.04C161.523 329.04 162.266 329.04 163.008 329.04C181.126 329.04 195.234 324.248 205.035 314.514C205.926 313.615 206.669 312.716 207.56 311.818C207.263 327.543 203.253 339.374 195.828 346.712C188.254 354.05 176.522 357.645 160.929 357.345L160.632 370.824C161.523 370.824 162.266 370.824 163.008 370.824C181.126 370.824 195.234 366.031 205.035 356.297C205.926 355.398 206.817 354.5 207.56 353.451V385.5H220.925V353.451C221.816 354.35 222.559 355.398 223.45 356.297C233.251 365.881 247.359 370.824 265.477 370.824C266.219 370.824 267.11 370.824 267.853 370.824L267.556 357.345C251.963 357.645 240.231 354.2 232.657 346.712C225.083 339.374 221.222 327.543 220.925 311.818C221.668 312.716 222.559 313.765 223.45 314.514C233.4 324.098 247.508 329.04 265.774 329.04Z" fill="#20DF60"/>
<path fill-rule="evenodd" clip-rule="evenodd" d="M340.769 234.991V204.439H348.788V216.42H352.649L356.956 208.034C357.55 206.836 358.441 205.787 359.332 205.039C360.223 204.29 361.56 203.84 363.045 203.84C363.787 203.84 364.975 203.99 366.906 204.29V210.13H365.124C364.678 210.13 364.233 210.28 363.936 210.58L363.936 210.58C363.639 210.879 363.342 211.179 363.193 211.478L359.035 219.416L367.5 234.991H359.184L352.501 222.561H348.64V234.991H340.769ZM96.1807 234.991V204.29V204.14H114.447C117.565 204.14 119.793 204.889 121.13 206.237C122.466 207.734 123.209 209.981 123.209 212.976V217.319C123.209 220.464 122.466 222.71 121.13 224.058C119.645 225.406 117.417 226.155 114.447 226.155H104.051V234.991H96.1807ZM115.338 217.319V212.976C115.338 211.328 114.447 210.43 112.813 210.43H104.051V220.015H112.665C114.447 220.015 115.338 219.116 115.338 217.319ZM69.1529 234.991H60.6881L72.123 204.29H80.7363L92.3197 234.991H83.8549L81.9244 229.45H71.0835L69.1529 234.991ZM79.8453 223.759L76.4297 213.425L73.0141 223.759H79.8453ZM133.604 234.991L139.693 225.256L145.781 234.991H154.395L144.445 219.565L154.246 204.29H145.484L139.693 213.874L133.753 204.29H125.139L134.941 219.565L124.842 234.991H133.604ZM189.145 204.29H197.016V234.991H189.145V204.29ZM159.295 204.29V234.991H177.116C180.086 234.991 182.314 234.242 183.799 232.894C185.135 231.546 185.878 229.3 185.878 226.155V223.459C185.878 220.464 185.135 218.217 183.799 216.72C182.462 215.372 180.235 214.623 177.116 214.623H167.166V204.14H159.295V204.29ZM175.334 220.913C177.116 220.913 178.007 221.812 178.007 223.609V226.305C178.007 228.102 177.116 229 175.334 229H167.018V221.063H175.334V220.913ZM202.659 228.85H216.618C218.252 228.85 219.143 227.952 219.292 226.305V225.406C219.292 223.609 218.401 222.71 216.618 222.71H209.342V216.57H216.767C218.401 216.57 219.292 215.672 219.292 214.024V213.126C219.292 211.328 218.401 210.43 216.618 210.43H202.659V204.29H218.698C221.519 204.29 223.598 204.889 224.935 206.237C226.271 207.584 226.865 209.531 226.865 212.227C226.865 214.024 226.42 215.522 225.677 216.57C224.935 217.618 223.895 218.367 222.559 218.817C225.677 219.865 227.162 222.561 226.865 227.053C226.865 229.749 226.271 231.696 224.935 233.044C223.598 234.392 221.519 234.991 218.698 234.991H202.659V228.85ZM271.269 234.991V204.29H244.835V234.991H252.557V210.43H263.546V234.991H271.269ZM283.743 234.991H275.278L286.713 204.29H295.327L306.91 234.991H298.445L296.515 229.45H285.674L283.743 234.991ZM294.436 223.759L291.02 213.425L287.456 223.759H294.436ZM310.029 204.29V234.991H317.899V226.155H328.295C331.265 226.155 333.493 225.406 334.978 224.058C336.314 222.71 337.057 220.464 337.057 217.319V212.976C337.057 209.981 336.314 207.734 334.978 206.237C333.641 204.889 331.413 204.14 328.295 204.14H310.029V204.29ZM329.037 212.976V217.319C329.037 219.116 328.146 220.015 326.364 220.015H317.602V210.43H326.364C328.146 210.43 329.037 211.328 329.037 212.976Z" fill="white"/>
</g>
<defs>
<linearGradient id="paint0_linear_344_496" x1="0" y1="0" x2="390.388" y2="458.643" gradientUnits="userSpaceOnUse">
<stop stop-color="#172436"/>
<stop offset="1" stop-color="#315381"/>
</linearGradient>
<clipPath id="clip0_344_496">
<rect width="308" height="344" fill="white" transform="translate(59.5 41.5)"/>
</clipPath>
</defs>
</svg>
